<svg width="268" height="61" viewBox="0 0 268 61" fill="none" xmlns="http://www.w3.org/2000/svg">
<path d="M113.024 43.816C113.376 43.816 113.688 43.952 113.96 44.224L116.504 46.984C115.096 48.728 113.36 50.064 111.296 50.992C109.248 51.92 106.784 52.384 103.904 52.384C101.328 52.384 99.0081 51.944 96.9441 51.064C94.8961 50.184 93.1441 48.96 91.6881 47.392C90.2321 45.824 89.1121 43.952 88.3281 41.776C87.5601 39.6 87.1761 37.224 87.1761 34.648C87.1761 32.04 87.5921 29.656 88.4241 27.496C89.2561 25.32 90.4241 23.448 91.9281 21.88C93.4481 20.312 95.2561 19.096 97.3521 18.232C99.4481 17.352 101.768 16.912 104.312 16.912C106.84 16.912 109.08 17.328 111.032 18.16C113 18.992 114.672 20.08 116.048 21.424L113.888 24.424C113.76 24.616 113.592 24.784 113.384 24.928C113.192 25.072 112.92 25.144 112.568 25.144C112.328 25.144 112.08 25.08 111.824 24.952C111.568 24.808 111.288 24.64 110.984 24.448C110.68 24.24 110.328 24.016 109.928 23.776C109.528 23.536 109.064 23.32 108.536 23.128C108.008 22.92 107.392 22.752 106.688 22.624C106 22.48 105.2 22.408 104.288 22.408C102.736 22.408 101.312 22.688 100.016 23.248C98.7361 23.792 97.6321 24.592 96.7041 25.648C95.7761 26.688 95.0561 27.968 94.5441 29.488C94.0321 30.992 93.7761 32.712 93.7761 34.648C93.7761 36.6 94.0481 38.336 94.5921 39.856C95.1521 41.376 95.9041 42.656 96.8481 43.696C97.7921 44.736 98.9041 45.536 100.184 46.096C101.464 46.64 102.84 46.912 104.312 46.912C105.192 46.912 105.984 46.864 106.688 46.768C107.408 46.672 108.064 46.52 108.656 46.312C109.264 46.104 109.832 45.84 110.36 45.52C110.904 45.184 111.44 44.776 111.968 44.296C112.128 44.152 112.296 44.04 112.472 43.96C112.648 43.864 112.832 43.816 113.024 43.816ZM139.407 23.608C139.215 23.944 139.007 24.192 138.783 24.352C138.575 24.496 138.311 24.568 137.991 24.568C137.655 24.568 137.287 24.448 136.887 24.208C136.503 23.952 136.039 23.672 135.495 23.368C134.951 23.064 134.311 22.792 133.575 22.552C132.855 22.296 131.999 22.168 131.007 22.168C130.111 22.168 129.327 22.28 128.655 22.504C127.983 22.712 127.415 23.008 126.951 23.392C126.503 23.776 126.167 24.24 125.943 24.784C125.719 25.312 125.607 25.896 125.607 26.536C125.607 27.352 125.831 28.032 126.279 28.576C126.743 29.12 127.351 29.584 128.103 29.968C128.855 30.352 129.711 30.696 130.671 31C131.631 31.304 132.615 31.632 133.623 31.984C134.631 32.32 135.615 32.72 136.575 33.184C137.535 33.632 138.391 34.208 139.143 34.912C139.895 35.6 140.495 36.448 140.943 37.456C141.407 38.464 141.639 39.688 141.639 41.128C141.639 42.696 141.367 44.168 140.823 45.544C140.295 46.904 139.511 48.096 138.471 49.12C137.447 50.128 136.191 50.928 134.703 51.52C133.215 52.096 131.511 52.384 129.591 52.384C128.487 52.384 127.399 52.272 126.327 52.048C125.255 51.84 124.223 51.536 123.23 51.136C122.255 50.736 121.335 50.256 120.471 49.696C119.607 49.136 118.839 48.512 118.167 47.824L120.062 44.728C120.223 44.504 120.431 44.32 120.687 44.176C120.943 44.016 121.215 43.936 121.503 43.936C121.903 43.936 122.335 44.104 122.799 44.44C123.263 44.76 123.815 45.12 124.455 45.52C125.095 45.92 125.839 46.288 126.687 46.624C127.551 46.944 128.583 47.104 129.783 47.104C131.623 47.104 133.047 46.672 134.055 45.808C135.063 44.928 135.567 43.672 135.567 42.04C135.567 41.128 135.335 40.384 134.871 39.808C134.423 39.232 133.823 38.752 133.071 38.368C132.319 37.968 131.463 37.632 130.503 37.36C129.543 37.088 128.567 36.792 127.575 36.472C126.583 36.152 125.607 35.768 124.647 35.32C123.687 34.872 122.831 34.288 122.079 33.568C121.327 32.848 120.719 31.952 120.255 30.88C119.807 29.792 119.583 28.456 119.583 26.872C119.583 25.608 119.831 24.376 120.327 23.176C120.839 21.976 121.575 20.912 122.535 19.984C123.495 19.056 124.679 18.312 126.087 17.752C127.495 17.192 129.111 16.912 130.935 16.912C132.983 16.912 134.871 17.232 136.599 17.872C138.327 18.512 139.799 19.408 141.015 20.56L139.407 23.608ZM180.686 48.208L180.662 52H159.47V17.608H180.662V21.4H164.126V32.824H177.518V36.472H164.126V48.208H180.686ZM189.541 31.216C190.069 30.624 190.629 30.088 191.221 29.608C191.813 29.128 192.437 28.72 193.093 28.384C193.765 28.032 194.469 27.768 195.205 27.592C195.957 27.4 196.765 27.304 197.629 27.304C198.957 27.304 200.125 27.528 201.133 27.976C202.157 28.408 203.005 29.032 203.677 29.848C204.365 30.648 204.885 31.616 205.237 32.752C205.589 33.888 205.765 35.144 205.765 36.52V52H201.469V36.52C201.469 34.68 201.045 33.256 200.197 32.248C199.365 31.224 198.093 30.712 196.381 30.712C195.117 30.712 193.933 31.016 192.829 31.624C191.741 32.232 190.733 33.056 189.805 34.096V52H185.509V27.688H188.077C188.685 27.688 189.061 27.984 189.205 28.576L189.541 31.216ZM219.411 52.384C217.491 52.384 216.011 51.848 214.971 50.776C213.947 49.704 213.435 48.16 213.435 46.144V31.264H210.507C210.251 31.264 210.035 31.192 209.859 31.048C209.683 30.888 209.595 30.648 209.595 30.328V28.624L213.579 28.12L214.562 20.608C214.611 20.368 214.715 20.176 214.875 20.032C215.051 19.872 215.275 19.792 215.547 19.792H217.707V28.168H224.739V31.264H217.707V45.856C217.707 46.88 217.955 47.64 218.451 48.136C218.947 48.632 219.587 48.88 220.371 48.88C220.819 48.88 221.203 48.824 221.523 48.712C221.859 48.584 222.147 48.448 222.387 48.304C222.627 48.16 222.827 48.032 222.987 47.92C223.163 47.792 223.315 47.728 223.443 47.728C223.667 47.728 223.867 47.864 224.043 48.136L225.291 50.176C224.555 50.864 223.667 51.408 222.627 51.808C221.587 52.192 220.515 52.384 219.411 52.384ZM233.206 32.56C233.974 30.896 234.918 29.6 236.038 28.672C237.158 27.728 238.526 27.256 240.142 27.256C240.654 27.256 241.142 27.312 241.606 27.424C242.086 27.536 242.51 27.712 242.878 27.952L242.566 31.144C242.47 31.544 242.23 31.744 241.846 31.744C241.622 31.744 241.294 31.696 240.862 31.6C240.43 31.504 239.942 31.456 239.398 31.456C238.63 31.456 237.942 31.568 237.334 31.792C236.742 32.016 236.206 32.352 235.726 32.8C235.262 33.232 234.838 33.776 234.454 34.432C234.086 35.072 233.75 35.808 233.446 36.64V52H229.15V27.688H231.598C232.062 27.688 232.382 27.776 232.558 27.952C232.734 28.128 232.854 28.432 232.918 28.864L233.206 32.56ZM267.61 27.688L254.05 59.176C253.906 59.496 253.722 59.752 253.498 59.944C253.29 60.136 252.962 60.232 252.514 60.232H249.346L253.786 50.584L243.754 27.688H247.45C247.818 27.688 248.106 27.784 248.314 27.976C248.538 28.152 248.69 28.352 248.77 28.576L255.274 43.888C255.53 44.56 255.746 45.264 255.922 46C256.146 45.248 256.386 44.536 256.642 43.864L262.954 28.576C263.05 28.32 263.21 28.112 263.434 27.952C263.674 27.776 263.938 27.688 264.226 27.688H267.61Z" fill="white"/>
<path d="M18.213 41.1009C25.2405 39.7468 39.0495 36.5106 44.865 31.1323C44.3228 30.373 37.3025 26.7522 37.3025 26.7522C37.3025 26.7522 45.6615 26.7522 49.0445 26.7522C54.8156 25.9582 56.9209 0 56.9209 0C56.9209 0 32.9235 13.0221 26.5541 21.1494C20.1858 29.2791 13.9417 41.8473 13.9417 41.8473L13.9452 41.8462C6.05556 50.2349 0 56.9209 0 56.9209L6.63825 53.3923L18.213 41.1009ZM54.0621 4.34913C53.7983 6.51283 53.4244 9.22595 52.9205 11.9833C51.0482 22.2529 49.0801 24.1026 48.7149 24.3653H37.3025C36.2003 24.3653 35.2403 25.1188 34.9824 26.1888C34.7232 27.26 35.2284 28.3692 36.2076 28.8744C37.6979 29.6446 39.3542 30.5331 40.6844 31.2806C35.4577 34.5025 27.1106 36.7568 21.0612 38.0764L51.3195 5.94817C52.3128 5.36288 53.2405 4.82201 54.0621 4.34913ZM28.4335 22.6228C31.8763 18.2297 41.0556 12.1587 48.2968 7.75828C42.8109 12.7832 35.4527 19.6829 28.461 26.7535C25.7265 29.5179 22.9369 32.3969 20.2239 35.2319C22.5047 31.2338 25.4662 26.4107 28.4335 22.6228ZM32.2644 50.3042C39.5642 51.1138 46.7087 52.7868 53.6264 55.0664C50.0476 54.3942 46.4772 53.7422 42.8804 53.2847C39.2944 52.7773 35.6964 52.3878 32.1082 52.161C28.9963 51.9975 25.888 51.9293 22.8178 52.1645C23.4733 52.2816 24.1314 52.3973 24.788 52.5168C26.5757 52.8499 28.3728 53.1807 30.1868 53.6023C31.098 53.8243 31.9971 54.0406 32.9655 54.4178C33.2091 54.5168 33.4586 54.6244 33.7416 54.7916C33.8848 54.8787 34.0378 54.9755 34.2169 55.1426C34.3804 55.3158 34.6479 55.5569 34.7399 56.1207C34.8163 56.7082 34.5034 57.1608 34.3183 57.3494C34.1141 57.5608 33.9469 57.6599 33.7953 57.753L33.5565 57.8784L33.3702 57.9631L32.9809 58.1123C30.9688 58.7476 29.1502 58.812 27.286 58.9326C25.4374 59.0233 23.602 59.0103 21.7726 58.9601C14.4549 58.7654 7.20532 57.9928 0.00111484 56.9206C3.64437 56.9707 7.27463 57.1069 10.9071 57.1091C14.5361 57.1641 18.1639 57.1772 21.775 57.1032C23.5794 57.0554 25.3789 56.9778 27.1582 56.8477C28.5363 56.7282 29.9703 56.5839 31.229 56.2758C30.7215 56.129 30.1948 55.9939 29.6611 55.8722C27.9309 55.4878 26.1492 55.1773 24.3616 54.862C22.5704 54.524 20.7923 54.2219 18.9391 53.7574C18.4506 53.6153 18.04 53.54 17.3688 53.195C17.2685 53.1329 17.1754 53.0815 17.0238 52.9479C16.9056 52.82 16.6082 52.6015 16.5617 51.9698C16.5509 51.6688 16.6691 51.3906 16.7778 51.2331C16.8841 51.0718 16.9987 50.9703 17.0704 50.9094C17.2447 50.7732 17.3464 50.7292 17.4549 50.6729C17.8358 50.5021 18.0807 50.4568 18.3469 50.3947C19.3584 50.1894 20.2527 50.0985 21.1974 50.0233C24.9097 49.7477 28.6175 49.8875 32.2644 50.3042Z" fill="white"/>
</svg>
