<svg width="265" height="68" viewBox="0 0 265 68" fill="none" xmlns="http://www.w3.org/2000/svg">
<path d="M24.5773 37.324C23.5933 37.324 22.8973 37.12 22.4893 36.712C22.1053 36.304 21.9133 35.788 21.9133 35.164V34.516C21.9133 33.892 22.1053 33.376 22.4893 32.968C22.8973 32.56 23.5933 32.356 24.5773 32.356C25.5613 32.356 26.2453 32.56 26.6293 32.968C27.0373 33.376 27.2413 33.892 27.2413 34.516V35.164C27.2413 35.788 27.0373 36.304 26.6293 36.712C26.2453 37.12 25.5613 37.324 24.5773 37.324ZM24.5773 23.068C23.5933 23.068 22.8973 22.864 22.4893 22.456C22.1053 22.048 21.9133 21.532 21.9133 20.908V20.26C21.9133 19.636 22.1053 19.12 22.4893 18.712C22.8973 18.304 23.5933 18.1 24.5773 18.1C25.5613 18.1 26.2453 18.304 26.6293 18.712C27.0373 19.12 27.2413 19.636 27.2413 20.26V20.908C27.2413 21.532 27.0373 22.048 26.6293 22.456C26.2453 22.864 25.5613 23.068 24.5773 23.068ZM38.6033 41.968L51.1313 9.64H53.7233L41.1953 41.968H38.6033ZM60.1892 41.968L72.7172 9.64H75.3092L62.7812 41.968H60.1892Z" fill="#DADADA"/>
<path d="M92.1432 37V32.068H79.7592V29.404L90.6312 11.872H95.0232V29.584H98.7672V32.068H95.0232V37H92.1432ZM82.4592 29.584H92.1432V14.212H91.9992L82.4592 29.584ZM110.921 37.432C109.385 37.432 108.065 37.144 106.961 36.568C105.857 35.968 104.945 35.116 104.225 34.012C103.505 32.908 102.977 31.552 102.641 29.944C102.305 28.336 102.137 26.5 102.137 24.436C102.137 22.396 102.305 20.572 102.641 18.964C102.977 17.332 103.505 15.964 104.225 14.86C104.945 13.756 105.857 12.916 106.961 12.34C108.065 11.74 109.385 11.44 110.921 11.44C112.457 11.44 113.777 11.74 114.881 12.34C115.985 12.916 116.897 13.756 117.617 14.86C118.337 15.964 118.865 17.332 119.201 18.964C119.537 20.572 119.705 22.396 119.705 24.436C119.705 26.5 119.537 28.336 119.201 29.944C118.865 31.552 118.337 32.908 117.617 34.012C116.897 35.116 115.985 35.968 114.881 36.568C113.777 37.144 112.457 37.432 110.921 37.432ZM110.921 34.804C111.929 34.804 112.793 34.612 113.513 34.228C114.233 33.82 114.809 33.256 115.241 32.536C115.697 31.816 116.033 30.952 116.249 29.944C116.465 28.912 116.573 27.76 116.573 26.488V22.384C116.573 21.136 116.465 19.996 116.249 18.964C116.033 17.932 115.697 17.056 115.241 16.336C114.809 15.616 114.233 15.064 113.513 14.68C112.793 14.272 111.929 14.068 110.921 14.068C109.913 14.068 109.049 14.272 108.329 14.68C107.609 15.064 107.021 15.616 106.565 16.336C106.133 17.056 105.809 17.932 105.593 18.964C105.377 19.996 105.269 21.136 105.269 22.384V26.488C105.269 27.76 105.377 28.912 105.593 29.944C105.809 30.952 106.133 31.816 106.565 32.536C107.021 33.256 107.609 33.82 108.329 34.228C109.049 34.612 109.913 34.804 110.921 34.804ZM110.921 26.56C110.081 26.56 109.493 26.392 109.157 26.056C108.845 25.72 108.689 25.312 108.689 24.832V24.04C108.689 23.56 108.845 23.152 109.157 22.816C109.493 22.48 110.081 22.312 110.921 22.312C111.761 22.312 112.337 22.48 112.649 22.816C112.985 23.152 113.153 23.56 113.153 24.04V24.832C113.153 25.312 112.985 25.72 112.649 26.056C112.337 26.392 111.761 26.56 110.921 26.56ZM135.315 37V32.068H122.931V29.404L133.803 11.872H138.195V29.584H141.939V32.068H138.195V37H135.315ZM125.631 29.584H135.315V14.212H135.171L125.631 29.584ZM146.281 37V11.872H162.697V15.76H150.997V22.312H161.545V26.2H150.997V37H146.281ZM175.679 37.432C174.047 37.432 172.631 37.144 171.431 36.568C170.231 35.968 169.235 35.116 168.443 34.012C167.675 32.908 167.099 31.552 166.715 29.944C166.355 28.336 166.175 26.5 166.175 24.436C166.175 22.396 166.355 20.572 166.715 18.964C167.099 17.332 167.675 15.964 168.443 14.86C169.235 13.756 170.231 12.916 171.431 12.34C172.631 11.74 174.047 11.44 175.679 11.44C178.943 11.44 181.343 12.58 182.879 14.86C184.415 17.14 185.183 20.332 185.183 24.436C185.183 28.54 184.415 31.732 182.879 34.012C181.343 36.292 178.943 37.432 175.679 37.432ZM175.679 33.58C176.519 33.58 177.227 33.424 177.803 33.112C178.379 32.776 178.835 32.308 179.171 31.708C179.531 31.108 179.783 30.376 179.927 29.512C180.095 28.624 180.179 27.64 180.179 26.56V22.276C180.179 20.116 179.843 18.412 179.171 17.164C178.523 15.916 177.359 15.292 175.679 15.292C173.999 15.292 172.823 15.916 172.151 17.164C171.503 18.412 171.179 20.116 171.179 22.276V26.596C171.179 28.756 171.503 30.46 172.151 31.708C172.823 32.956 173.999 33.58 175.679 33.58ZM193.413 11.872V27.532C193.413 28.468 193.437 29.308 193.485 30.052C193.557 30.796 193.713 31.432 193.953 31.96C194.217 32.464 194.601 32.86 195.105 33.148C195.633 33.436 196.353 33.58 197.265 33.58C198.177 33.58 198.885 33.436 199.389 33.148C199.917 32.86 200.301 32.464 200.541 31.96C200.805 31.432 200.961 30.796 201.009 30.052C201.081 29.308 201.117 28.468 201.117 27.532V11.872H205.833V26.812C205.833 28.588 205.725 30.136 205.509 31.456C205.293 32.776 204.873 33.88 204.249 34.768C203.625 35.656 202.749 36.328 201.621 36.784C200.517 37.216 199.065 37.432 197.265 37.432C195.465 37.432 194.001 37.216 192.873 36.784C191.769 36.328 190.905 35.656 190.281 34.768C189.657 33.88 189.237 32.776 189.021 31.456C188.805 30.136 188.697 28.588 188.697 26.812V11.872H193.413ZM214.855 18.964H214.495V37H210.463V11.872H216.259L222.847 29.908H223.207V11.872H227.239V37H221.443L214.855 18.964ZM232.265 11.872H240.077C243.341 11.872 245.765 12.952 247.349 15.112C248.957 17.272 249.761 20.38 249.761 24.436C249.761 28.516 248.957 31.636 247.349 33.796C245.765 35.932 243.341 37 240.077 37H232.265V11.872ZM239.753 33.22C241.481 33.22 242.753 32.656 243.569 31.528C244.409 30.4 244.829 28.756 244.829 26.596V22.24C244.829 20.104 244.409 18.472 243.569 17.344C242.753 16.216 241.481 15.652 239.753 15.652H236.909V33.22H239.753Z" fill="#484848"/>
</svg>
